<svg xmlns="http://www.w3.org/2000/svg" viewBox="0 0 800 450"><rect width="800" height="450" fill="#CFE0E8"/><circle cx="640" cy="90" r="46" fill="#C08A1E" opacity=".9"/><path d="M0 330 Q200 270 400 320 T800 300 V450 H0Z" fill="#4C7A5A" opacity=".55"/><polygon points="120,380 120,230 190,170 260,230 260,380" fill="#2F6F8F"/><polygon points="270,380 270,250 340,190 410,250 410,380" fill="#B23A2B"/><polygon points="420,380 420,220 495,155 570,220 570,380" fill="#C08A1E"/><rect x="175" y="250" width="30" height="30" fill="#CFE0E8"/><rect x="325" y="270" width="30" height="30" fill="#CFE0E8"/><rect x="480" y="245" width="30" height="30" fill="#CFE0E8"/><rect y="380" width="800" height="70" fill="#1B2932" opacity=".85"/></svg>